# xmcd
#
# Track frame offsets:
#	182
#	13587
#	27100
#	41180
#	56205
#	70605
#	85850
#	99272
#	112502
#	126165
#	139625
#	154152
#	167690
#	181235
#	193952
#	207440
#	220582
#	234820
#	247137
#	259892
#	273272
#	286327
#	298975
#
# Disc length: 4189 seconds
#
# Revision: 0
# Processed by: cddbd v1.5.1PL2 Copyright (c) Steve Scherf et al.
# Submitted via: dBpowerAMP V4.0
#
DISCID=4c105b17
DTITLE=Bessie Smith - Bessie Smith 1927-1928
DYEAR=1927
DGENRE=Blues
TTITLE0=After You've Gone 03-02-27
TTITLE1=Alexander's Ragtime Band 03-02-27
TTITLE2=Muddy Water 03-02-27
TTITLE3=There'll Be A Hot time In The Old Town Tonight 03-02-27
TTITLE4=Trombone Cholly 03-03-27
TTITLE5=Send Me To The 'lectric Chair 03-03-27
TTITLE6=Them's Graveyard Words 03-03-27
TTITLE7=Hot Springs Blues 03-03-27
TTITLE8=Sweet Mistreater 04-01-27
TTITLE9=Lock And Key 04-01-27
TTITLE10=Mean Old Bed Bug Blues 09-27-27
TTITLE11=A Good Man Is Hard To Find 09-27-27
TTITLE12=Homeless Blues 09-28-27
TTITLE13=Looking For My Man Blues 09-28-27
TTITLE14=Dyln' By The Hour 10-27-27
TTITLE15=Foolish Man blues 10-27-27
TTITLE16=Thinking Blues 02-09-28
TTITLE17=Pickpocket blues 02-09-28
TTITLE18=I Used To Be Your Sweet Mama 02-09-28
TTITLE19=I'd Rather Be Dead And Buried In My Grave 02-16-28
TTITLE20=Standin' In The Rain Blues 02-21-28
TTITLE21=It Won't Be You 02-21-28
TTITLE22=Spider Man Blues 03-19-28
EXTD=
EXTT0=
EXTT1=
EXTT2=
EXTT3=
EXTT4=
EXTT5=
EXTT6=
EXTT7=
EXTT8=
EXTT9=
EXTT10=
EXTT11=
EXTT12=
EXTT13=
EXTT14=
EXTT15=
EXTT16=
EXTT17=
EXTT18=
EXTT19=
EXTT20=
EXTT21=
EXTT22=
PLAYORDER=
